<?xml version="1.0" encoding="utf-8"?>
<!-- Generator: Adobe Illustrator 16.0.0, SVG Export Plug-In . SVG Version: 6.00 Build 0)  -->
<!DOCTYPE svg PUBLIC "-//W3C//DTD SVG 1.1//EN" "http://www.w3.org/Graphics/SVG/1.1/DTD/svg11.dtd">
<svg version="1.1" id="Layer_1" xmlns="http://www.w3.org/2000/svg" xmlns:xlink="http://www.w3.org/1999/xlink" x="0px" y="0px"
	 width="41.03px" height="101.003px" viewBox="0 0 41.03 101.003" enable-background="new 0 0 41.03 101.003" xml:space="preserve">
<path fill="#DE1F26" d="M30.28,81.643c3.28-3.38,4.07-8.06,4.07-8.06v-43.25c0,0-1-5.91-5.41-9.25c-4.42-3.33-7.721-4-11.88-4
	c-4.011,0.04-7.351,0.84-11.641,4.09C1,24.503,0,30.423,0,30.423v43.16c0,0,1,5.92,5.42,9.25c4.41,3.34,7.58,4,11.75,4
	c0.011,0,0.011,0,0.021,0c0.359,0,0.71,0,1.05-0.02l14.19,14.189l8.6-8.61L30.28,81.643z M22.59,75.043H11.75v-46.17h10.84V75.043z"
	/>
<path d="M17.061,17.083C16.931,17.083,17.17,17.023,17.061,17.083L17.061,17.083z"/>
<rect x="11.089" fill="#DE1F26" width="12.166" height="12.166"/>
</svg>
